<?xml version="1.0" standalone="no"?>
<!DOCTYPE svg PUBLIC "-//W3C//DTD SVG 20010904//EN"
 "http://www.w3.org/TR/2001/REC-SVG-20010904/DTD/svg10.dtd">
<svg version="1.0" xmlns="http://www.w3.org/2000/svg"
 width="512.000000pt" height="512.000000pt" viewBox="0 0 512.000000 512.000000"
 preserveAspectRatio="xMidYMid meet">
<metadata>
Created by potrace 1.11, written by Peter Selinger 2001-2013
</metadata>
<g transform="translate(0.000000,512.000000) scale(0.100000,-0.100000)"
fill="#000000" stroke="none">
<path d="M2583 5050 c-113 -23 -243 -98 -323 -188 -99 -111 -151 -250 -152
-404 0 -129 27 -227 94 -331 52 -81 498 -642 510 -642 22 0 506 624 544 700
86 174 83 385 -8 558 -72 138 -237 266 -390 302 -67 16 -206 18 -275 5z m205
-441 c131 -64 129 -245 -3 -309 -102 -49 -224 13 -242 123 -13 82 25 154 102
188 53 24 89 24 143 -2z"/>
<path d="M1631 4375 c-260 -137 -502 -335 -695 -570 -87 -105 -166 -217 -166
-234 0 -6 17 -13 38 -17 54 -10 168 -52 237 -88 33 -17 63 -32 66 -34 3 -1 32
32 65 75 147 197 409 424 602 522 22 11 43 25 47 31 3 5 -5 44 -20 87 -14 42
-30 108 -36 147 -6 39 -12 86 -15 104 -3 17 -8 32 -12 32 -4 0 -54 -25 -111
-55z"/>
<path d="M3670 4391 c0 -56 -25 -173 -56 -259 -15 -40 -25 -74 -23 -76 2 -2
36 -21 74 -44 180 -104 343 -237 472 -382 236 -266 391 -582 457 -933 18 -92
37 -338 34 -421 l-3 -59 69 -13 c88 -17 156 -39 230 -76 32 -16 61 -26 65 -23
14 15 5 450 -13 570 -50 335 -178 670 -358 940 -218 326 -523 601 -850 766
l-98 49 0 -39z"/>
<path d="M540 3219 c-144 -13 -260 -68 -366 -174 -117 -117 -174 -254 -174
-424 0 -105 17 -184 60 -275 31 -64 524 -701 543 -701 19 0 506 627 542 697
116 231 73 515 -105 698 -130 133 -307 197 -500 179z m145 -452 c45 -26 82
-75 91 -122 20 -108 -91 -220 -200 -200 -133 25 -190 182 -103 282 58 66 139
81 212 40z"/>
<path d="M4380 1854 c-144 -31 -305 -144 -379 -268 -126 -211 -120 -479 17
-671 19 -27 139 -182 266 -343 185 -235 232 -290 242 -280 7 7 121 150 254
318 244 309 296 389 325 500 19 72 19 230 0 305 -81 316 -401 509 -725 439z
m233 -451 c66 -42 94 -134 63 -206 -50 -117 -208 -144 -288 -49 -87 103 -42
242 90 282 39 12 92 1 135 -27z"/>
<path d="M888 1428 c-135 -171 -168 -214 -168 -222 0 -4 25 -47 56 -94 179
-275 403 -502 669 -677 377 -249 803 -375 1267 -375 312 0 590 55 884 176 84
34 294 144 334 174 l23 17 -108 139 c-60 77 -112 143 -115 147 -4 4 -35 -9
-70 -29 -91 -53 -211 -107 -326 -147 -837 -290 -1754 27 -2241 775 -34 53 -75
122 -90 152 -15 31 -31 56 -35 56 -4 0 -40 -42 -80 -92z"/>
</g>
</svg>
